<svg width="20" height="20" viewBox="0 0 20 20" fill="none" xmlns="http://www.w3.org/2000/svg"><path d="M19.97 4.89c.17.45-.35 1.53-1.57 3.21l-.65.92a6.6 6.6 0 0 0-.95 1.42c-.12.3-.07.6.14.88.13.15.4.46.84.92h.04v.04c1 .94 1.66 1.74 2 2.4l.08.16.07.29v.36l-.26.29-.62.13-2.66.08c-.17.03-.37 0-.6-.08a2.5 2.5 0 0 1-.53-.23l-.21-.15a4.28 4.28 0 0 1-.73-.69 30 30 0 0 1-.71-.84c-.21-.26-.42-.47-.64-.63-.22-.17-.41-.23-.58-.18-.03 0-.06.02-.1.04a1.53 1.53 0 0 0-.4.5 4.44 4.44 0 0 0-.24 1.42c0 .1 0 .2-.03.29a1.3 1.3 0 0 1-.07.2l-.04.04a.77.77 0 0 1-.58.23H9.8c-.5.05-1.02 0-1.55-.15a5.49 5.49 0 0 1-1.36-.6c-.4-.24-.74-.48-1.06-.72a6.48 6.48 0 0 1-.73-.63l-.25-.27a1.64 1.64 0 0 1-.3-.3l-.74-1a24.86 24.86 0 0 1-2.39-3.97A38.2 38.2 0 0 1 .07 5.31.92.92 0 0 1 0 5c0-.08.01-.14.04-.2l.03-.03c.1-.15.3-.23.59-.23h2.87c.08 0 .15.02.22.06l.19.1.03.03c.12.08.2.2.26.35a27.89 27.89 0 0 0 .9 2.03l.15.3c.22.44.42.81.6 1.13.19.32.35.57.5.75.14.18.29.32.43.42.15.1.27.15.37.15.1 0 .2 0 .29-.03l.04-.06.12-.25.15-.5.1-.88V6.76a7.14 7.14 0 0 0-.26-1.3l-.04-.12c-.17-.25-.47-.42-.91-.5-.07 0-.05-.08.07-.26.12-.13.26-.23.4-.3.37-.21 1.2-.3 2.48-.28.56 0 1.03.06 1.42.16.12.02.23.07.33.13.1.07.17.15.22.27a1.9 1.9 0 0 1 .14.84V6c-.02.2-.03.46-.03.76v.92l-.02.46-.02.54c0 .12.01.27.04.44.02.16.06.3.12.42a.57.57 0 0 0 .4.3c.07.02.16-.02.28-.11.12-.09.25-.22.4-.38.15-.17.33-.42.55-.75a18.75 18.75 0 0 0 1.9-3.81c.05-.06.09-.1.14-.13h.03l.04-.04.15-.04h.21l3-.04c.26-.03.48-.01.67.04.18.05.28.11.3.19l.08.12Z" fill="#fff"/></svg>