<svg width="20" height="14" viewBox="0 0 20 14" fill="none" xmlns="http://www.w3.org/2000/svg"><path d="M19.58 2.42c-.11-.4-.33-.77-.63-1.06-.32-.3-.7-.5-1.12-.61C16.27.33 10 .33 10 .33 7.38.3 4.77.43 2.17.73c-.42.11-.8.33-1.11.63-.31.3-.54.66-.65 1.06A24.24 24.24 0 0 0 0 7a24.2 24.2 0 0 0 .4 4.58c.12.4.34.76.65 1.06.31.29.7.5 1.12.61 1.59.42 7.83.42 7.83.42 2.61.03 5.23-.1 7.83-.4.42-.1.8-.32 1.12-.61.3-.3.52-.66.63-1.06.29-1.51.43-3.04.42-4.58.02-1.54-.12-3.08-.42-4.6ZM8 9.85v-5.7L13.22 7 8 9.85Z" fill="#fff"/></svg>