<svg width="38" height="46" viewBox="0 0 38 46" fill="none" xmlns="http://www.w3.org/2000/svg"><path fill-rule="evenodd" clip-rule="evenodd" d="M7.14.71c-.84.29-1.44.92-1.7 1.76-.07.24-.12.79-.12 1.28v.87l-1.67.03c-1.9.03-2.19.11-2.86.78-.73.74-.91 1.6-.72 3.48.34 3.23 1.44 5.73 3.3 7.49a8.56 8.56 0 0 0 3.28 1.96c.36.1.43.17.65.63.73 1.49 1.97 3.3 3.17 4.63.68.76 1.97 1.91 2.97 2.65.9.67 1.13.9 1.39 1.43.2.4.2.49.23 3.17l.03 2.76-.66.33a3.43 3.43 0 0 0-1.93 2.56l-.1.58-.77.04c-.92.05-1.43.25-1.96.78-.75.75-.75.78-.78 4.32l-.03 3.12.26.3.27.3 9.19.02 9.19.02.29-.26.3-.26V42.3c0-3.07-.02-3.2-.2-3.6-.1-.22-.36-.57-.56-.78-.53-.53-1.05-.73-1.96-.78l-.76-.04-.1-.58a3.52 3.52 0 0 0-2.05-2.62l-.56-.26.03-2.76c.03-2.7.03-2.78.23-3.18.26-.52.5-.76 1.4-1.43a20.08 20.08 0 0 0 6-7.04c.36-.71.4-.76.78-.87a8.69 8.69 0 0 0 3.32-2c1.85-1.78 2.92-4.25 3.26-7.45.2-1.87.02-2.74-.72-3.48-.67-.67-.96-.75-2.85-.78l-1.66-.03-.03-1.03a3.55 3.55 0 0 0-.22-1.45A3.07 3.07 0 0 0 30.36.79l-.41-.2L18.76.59C8.34.56 7.56.57 7.14.7Zm22.74 1.9.25.25v4.68c0 5.14-.03 5.35-.59 7.47a18.73 18.73 0 0 1-2.33 5.2 20.05 20.05 0 0 1-4.5 4.67c-1.08.8-1.45 1.2-1.81 1.92-.46.92-.5 1.23-.5 4.7v3.22l.25.27c.19.2.37.3.78.36.86.16 1.46.7 1.6 1.44l.06.33h-8.92l.06-.33c.14-.74.78-1.32 1.56-1.42.34-.04.55-.12.75-.3l.27-.24.03-3.26c.02-3.53 0-3.83-.48-4.77-.36-.73-.73-1.12-1.8-1.92a20.03 20.03 0 0 1-4.51-4.67 19.14 19.14 0 0 1-2.33-5.19c-.56-2.13-.58-2.34-.58-7.47 0-4.55 0-4.68.17-4.87.1-.1.26-.23.36-.27.1-.04 5.08-.06 11.07-.06l10.9.02.24.25ZM5.32 8.8c0 3.18.2 5.03.72 6.8.1.33.16.62.14.64-.09.08-1.38-.87-1.86-1.37-1.55-1.63-2.46-4.16-2.5-6.95 0-.83.01-.97.17-1.14.28-.32.45-.35 1.93-.35l1.4-.01v2.38ZM35.2 6.7c.24.24.24.27.23 1.2-.04 2.8-.94 5.33-2.5 6.96-.47.5-1.77 1.45-1.86 1.37-.02-.02.05-.31.15-.65.52-1.76.72-3.6.72-6.8V6.4l1.5.03 1.51.02.25.25ZM26.33 39.2l.25.24.02 2.4.03 2.4h-16l.03-2.4c.03-2.24.04-2.4.2-2.58.1-.1.26-.23.36-.27.1-.04 3.48-.07 7.52-.06l7.34.02.25.25Zm-11.57 1.57c-.28.11-.57.52-.57.81 0 .15.1.37.26.54l.26.3 2.09.02 2.08.03.3-.27c.24-.21.3-.32.3-.63 0-.3-.06-.42-.3-.63l-.29-.26h-1.97c-1.08.01-2.06.05-2.16.09Zm7.1 0c-.28.11-.57.52-.57.81 0 .36.41.78.81.85.27.04.37 0 .62-.22s.3-.33.3-.64c0-.3-.05-.42-.29-.63-.29-.26-.53-.3-.87-.17Z" fill="#fff"/><path fill-rule="evenodd" clip-rule="evenodd" d="M18.46 5.94c-.46.13-.57.28-1.43 2.06a79 79 0 0 1-.92 1.86c-.01.01-.84.14-1.83.28-1 .14-1.95.3-2.13.35-.4.11-.61.42-.61.86 0 .32.09.43 1.5 1.84l1.5 1.5-.34 2c-.3 1.79-.33 2.04-.22 2.3.06.15.2.32.3.37.42.23.77.12 2.56-.83l1.75-.92 1.79.92c1.97 1.02 2.27 1.1 2.65.71.12-.11.24-.3.27-.42.03-.11-.1-1.1-.29-2.18l-.34-1.97 1.48-1.48a9.6 9.6 0 0 0 1.53-1.71.9.9 0 0 0-.49-.94c-.16-.07-1.03-.23-1.93-.35l-1.9-.28c-.22-.05-.34-.25-1.17-1.9-.5-1.02-.97-1.88-1.02-1.91-.17-.1-.57-.2-.7-.16Zm.78 4.18c.32.62.68 1.19.8 1.28.18.13 2.2.5 2.78.52.05 0-.37.45-.94 1-.6.58-.89.84-1 1.15-.1.33-.01.71.13 1.57.1.56.18 1.1.18 1.18 0 .12-.24.02-1.18-.47a6.88 6.88 0 0 0-1.43-.62c-.14 0-.79.28-1.44.63-.65.34-1.19.58-1.19.53l.22-1.34c.2-1.1.2-1.3.1-1.54a6.97 6.97 0 0 0-1.02-1.15c-.5-.48-.89-.9-.87-.91.02-.02.61-.12 1.31-.22.7-.1 1.37-.24 1.48-.3.1-.07.45-.68.77-1.34.33-.67.62-1.2.66-1.16.03.04.32.57.64 1.19Z" fill="#DB3138"/><circle cx="22.28" cy="41.65" r=".98" fill="#DB3138"/></svg>