<svg width="57" height="70" viewBox="0 0 57 70" fill="none" xmlns="http://www.w3.org/2000/svg"><path fill-rule="evenodd" clip-rule="evenodd" d="M2.27.18A4.47 4.47 0 0 0 .2 2.34c-.25.84-.25 64.47 0 65.31.23.78 1.4 1.95 2.17 2.18.45.13 5.58.17 21.95.17h21.36l5.4-5.4 5.4-5.4V31.06c0-21.33-.04-28.28-.17-28.7-.09-.3-.44-.86-.77-1.24C54.43-.1 56.88 0 28.18.01 10.08 0 2.63.07 2.28.18Zm51.6 2.42.34.35V57.58H50.6c-2.43 0-3.81.06-4.2.17a4.22 4.22 0 0 0-2.18 2.17c-.11.4-.17 1.78-.17 4.2v3.62H2.97l-.35-.34-.35-.35V2.95l.35-.35.35-.35h50.55l.35.35Zm-32.9 2.1c-1.71.45-2.08.7-6.2 4.33a88.75 88.75 0 0 1-3.67 3.12c-.24.14-.65.26-.92.27-.62 0-1.78.53-2.32 1.07a4.8 4.8 0 0 0-.75 1.15c-.33.72-.34.8-.3 3.8.05 3.05.05 3.08.44 3.82a4.7 4.7 0 0 0 2.3 2.17c.5.2.77.4.77.55 0 .13.22.69.5 1.23a5.59 5.59 0 0 0 10 .01c.28-.55.5-1.09.5-1.2 0-.15 1-.18 5.8-.18s5.78.03 5.78.19c0 .1.22.64.5 1.18a5.59 5.59 0 0 0 10.01.01c.28-.55.5-1.09.5-1.2 0-.14.32-.18 1.43-.18.79 0 1.7-.08 2.01-.18a4.22 4.22 0 0 0 2.18-2.17c.1-.38.17-1.7.17-3.83 0-2.89-.03-3.28-.25-3.55-.19-.23-1.23-.58-4.18-1.42a143.5 143.5 0 0 1-3.97-1.16l-2.13-3a51.79 51.79 0 0 0-2.65-3.51c-.3-.3-.96-.75-1.48-1l-.94-.44-6.2-.03c-4.66-.02-6.4.02-6.92.16ZM26 9.53v2.75h-5.75c-4.88 0-5.72-.03-5.54-.2 1.2-1.12 5.21-4.52 5.55-4.7.92-.47 1.58-.58 3.65-.6H26v2.75ZM34.1 7.1c.87.41.95.5 2.82 3.13l1.5 2.11-4.06.05c-2.24.02-4.53 0-5.1-.05l-1.02-.1V6.78h2.58c2.41 0 2.62.02 3.28.33Zm8.49 8.16 1.99.57-.23.45c-.35.68-.3 2.01.1 2.67a2.82 2.82 0 0 0 2.2 1.33l.79.08v.76c0 .62-.07.83-.35 1.11-.32.32-.44.35-1.76.35-1.1 0-1.42-.05-1.42-.2 0-.1-.22-.63-.5-1.18a5.47 5.47 0 0 0-2.72-2.62c-.85-.4-1.07-.45-2.28-.45-1.22 0-1.44.04-2.29.45a5.47 5.47 0 0 0-2.72 2.62c-.28.55-.5 1.08-.5 1.18 0 .16-.99.2-5.79.2s-5.78-.04-5.78-.2c0-.1-.23-.63-.5-1.18a5.47 5.47 0 0 0-2.72-2.62c-.86-.4-1.07-.45-2.29-.45-1.2 0-1.43.04-2.28.45-.52.24-1.22.7-1.57 1.02-.62.57-1.51 2.03-1.51 2.47 0 .3-.17.28-.6-.05-.53-.42-.81-1.14-.81-2.1v-.85l.75-.35c1.38-.63 2.38-1.99 2.58-3.54l.1-.7 14.06.1 14.05.11 2 .57Zm-32.47-.14c-.1.47-.71 1.39-.94 1.39-.17 0-.17-.59 0-1.04.11-.29.7-.76.98-.8.03 0 .01.2-.04.45Zm6.83 1.81v1.13H20.34V15.8H16.95v1.13Zm13.55 0v1.13H33.9V15.8H30.5v1.13Zm16.94.57c0 .52-.03.56-.4.56-.44 0-.73-.22-.73-.56 0-.34.3-.57.73-.57.37 0 .4.04.4.57Zm-30.57 2.99c1.2.36 2.34 1.91 2.34 3.22a3.56 3.56 0 0 1-3.39 3.38 3.56 3.56 0 0 1-3.38-3.38c0-.9.32-1.6 1.05-2.34.99-1 2.06-1.27 3.38-.88Zm22.58 0c1.21.36 2.34 1.91 2.34 3.22a3.56 3.56 0 0 1-3.38 3.38 3.56 3.56 0 0 1-3.4-3.38c0-.9.33-1.6 1.06-2.34 1-1 2.06-1.27 3.38-.88Zm-24.76 3.22v1.13h2.26v-2.26H14.7v1.13Zm22.59 0v1.13h2.26v-2.26h-2.26v1.13Zm.98 8.68-1.47 1.48h-6.72l-.35.34-.35.35v7.65l.35.34.35.35h7.64l.35-.35.35-.34v-6.72L39.89 34c.81-.81 1.48-1.54 1.48-1.63 0-.18-1.3-1.48-1.49-1.48-.08 0-.8.67-1.62 1.49Zm-20.18 3.74v1.13h9.03V35h-9.03v1.13Zm24.84 0v1.13h9.04V35h-9.04v1.13Zm-9.07.67c-.37.37-.66.74-.65.81 0 .08.36.45.78.84l.77.7.7-.7.7-.69v2.88h-4.52v-4.51h2.88l-.66.67Zm-18.03 3.84v1.13h11.29v-2.26H15.82v1.13Zm24.84 0v1.13h11.3v-2.26h-11.3v1.13Zm-27.24 3.04-1.47 1.48H5.22l-.34.35-.35.34v7.65l.35.35.34.34h7.65l.35-.34.35-.35v-6.72l1.48-1.48c.81-.81 1.48-1.54 1.48-1.63 0-.18-1.3-1.47-1.49-1.47-.08 0-.8.66-1.62 1.48Zm24.84 0-1.47 1.48h-6.72l-.35.35-.35.34v7.65l.35.35.35.34h7.64l.35-.34.35-.35v-6.72l1.48-1.48c.81-.81 1.48-1.54 1.48-1.63 0-.18-1.3-1.47-1.49-1.47-.08 0-.8.66-1.62 1.48Zm-20.18 3.74v1.13h9.03v-2.26h-9.03v1.13Zm24.84 0v1.13h9.04v-2.26h-9.04v1.13Zm-33.91.67c-.37.37-.66.74-.65.81 0 .08.36.45.78.84l.76.7.7-.7.7-.69v2.88H6.8v-4.51h2.88l-.66.67Zm24.84 0c-.37.37-.66.74-.65.81 0 .08.36.45.78.84l.77.7.7-.7.7-.69v2.88h-4.52v-4.51h2.88l-.66.67Zm-18.03 3.84v1.13h11.29V50.8H15.82v1.13Zm24.84 0v1.13h11.3V50.8h-11.3v1.13Zm-27.24 3.04-1.47 1.48H5.22l-.34.35-.35.34v7.65l.35.35.34.34h7.65l.35-.34.35-.35v-6.72l1.48-1.48c.81-.81 1.48-1.54 1.48-1.62 0-.2-1.3-1.48-1.49-1.48-.08 0-.8.66-1.62 1.48Zm4.66 3.74v1.13h9.03v-2.26h-9.03v1.13Zm-9.07.67c-.37.38-.66.74-.65.82 0 .07.36.45.78.83l.76.7.7-.7.7-.69V63.23H6.8V58.7h2.88l-.66.67Zm43.51.5c0 .01-1.4 1.43-3.1 3.13l-3.11 3.1v-2.79c0-3.74-.26-3.48 3.45-3.48 1.52 0 2.76.01 2.76.03Zm-36.7 3.35v1.12h11.29V62.1H15.82v1.13Z" fill="#fff"/><path fill-rule="evenodd" clip-rule="evenodd" d="m13.42 32.39-1.47 1.48H5.22l-.34.34-.35.35v7.65l.35.34.34.35h7.65l.35-.35.34-.34v-6.72L15.05 34c.81-.81 1.48-1.54 1.48-1.63 0-.18-1.3-1.48-1.49-1.48-.08 0-.8.67-1.62 1.49ZM9.01 36.8c-.37.37-.66.74-.65.81 0 .08.36.45.78.84l.76.7.7-.7.7-.69v2.88H6.8v-4.51h2.88l-.66.67Z" fill="#DB3138"/><path fill-rule="evenodd" clip-rule="evenodd" d="m13.42 43.68-1.47 1.48H5.22l-.34.35-.35.35v7.65l.35.34.34.35h7.65l.35-.35.34-.34v-6.73l1.49-1.47c.81-.82 1.48-1.55 1.48-1.63 0-.19-1.3-1.48-1.49-1.48-.08 0-.8.67-1.62 1.48ZM9.01 48.1c-.37.37-.66.73-.65.81 0 .07.36.45.78.83l.76.7.7-.7.7-.68v2.88H6.8v-4.52h2.88l-.66.68Z" fill="#DB3138"/><path fill-rule="evenodd" clip-rule="evenodd" d="m13.42 54.97-1.47 1.49H5.23l-.35.34-.35.35v7.65l.35.34.35.35h7.64l.35-.35.35-.34v-6.73l1.48-1.47c.81-.81 1.48-1.55 1.48-1.63 0-.19-1.3-1.48-1.49-1.48-.08 0-.8.67-1.62 1.48ZM9.01 59.4c-.37.37-.66.74-.65.81 0 .08.36.45.78.83l.76.7.7-.7.7-.68v2.88H6.8v-4.52h2.88l-.66.68ZM38.24 43.68l-1.48 1.48h-6.72l-.35.35-.35.35v7.65l.35.34.35.35h7.64l.35-.35.35-.34v-6.73l1.48-1.47c.81-.82 1.48-1.55 1.48-1.63 0-.19-1.3-1.48-1.49-1.48-.07 0-.8.67-1.61 1.48Zm-4.42 4.42c-.37.37-.66.73-.65.81 0 .07.36.45.78.83l.77.7.7-.7.7-.68v2.88H31.6v-4.52H34.5l-.67.68Z" fill="#DB3138"/><path fill-rule="evenodd" clip-rule="evenodd" d="m38.24 32.4-1.48 1.47h-6.72l-.35.35-.35.35v7.64l.35.35.35.35h7.64l.35-.35.35-.35V35.5l1.48-1.48c.81-.8 1.48-1.54 1.48-1.62 0-.19-1.3-1.48-1.49-1.48-.07 0-.8.67-1.61 1.48Zm-4.42 4.4c-.37.38-.66.74-.65.82 0 .07.36.45.78.83l.77.7.7-.7.7-.68v2.88H31.6v-4.52H34.5l-.67.68Z" fill="#DB3138"/></svg>