<svg width="70" height="71" viewBox="0 0 70 71" fill="none" xmlns="http://www.w3.org/2000/svg"><path fill-rule="evenodd" clip-rule="evenodd" d="M45.38.73c-4.2.6-8.13 3.31-10.28 7.1-.32.55-1.22 2.71-1.99 4.78l-1.4 3.77H30.5v-.78c0-.65-.06-.85-.35-1.13-.33-.33-.43-.35-2-.35-1.85 0-4.95.3-6.45.63-1.72.37-2.78 1.24-3.34 2.73-.74 2 .16 4.26 2.1 5.2.78.4.86.4 3.85.47l3.04.08-1.68 2.04c-1.9 2.3-2.82 3.61-3.48 4.92-.36.71-.5.87-.7.79-.12-.06-.77-.3-1.43-.54-1.1-.4-1.36-.43-3.03-.43-2.09-.01-3.17.24-4.94 1.16-1.37.72-3.36 2.7-4.05 4.05a10.2 10.2 0 0 0-.65 8.21l.3.9-1.84 1.87a20.28 20.28 0 0 0-2.08 2.34 3.78 3.78 0 0 0-.15 2.68l.24.73-.56.88a22.1 22.1 0 0 0-2.86 6.99c-.27 1.2-.31 1.95-.37 6.06L0 70.58h2.26l.07-4.63c.07-4.92.12-5.36.9-7.72a21.3 21.3 0 0 1 2.03-4.25c.38-.56.45-.6.78-.48.53.2 1.33.17 2.11-.1.57-.19 1.05-.58 2.64-2.14l1.94-1.9.88.3c1.1.38 2.32.6 3.36.6.77 0 2.6-.3 3.13-.5.22-.1.24.04.24 1.78 0 2.1.23 3.4.77 4.6l.36.78v5.36c0 3.8.05 5.54.17 5.95.23.77 1.4 1.94 2.18 2.17.4.12 2.06.17 5.58.17 5.8 0 5.93-.02 6.93-1.12.83-.93.94-1.41.94-4.08 0-2.18.01-2.28.28-2.28.16 0 1.31.1 2.58.21 4.36.4 8.26.5 19.04.5H70V61.57l-12.66-.07c-14.57-.07-16.37-.17-24.3-1.3-5.55-.8-6.76-1.2-8.33-2.75a6.53 6.53 0 0 1-1.9-3.31c-.25-.98-.3-5.72-.07-5.72.28 0 2.1-1.87 2.67-2.73a11 11 0 0 0 1.7-5.27c0-.45.04-.5.32-.42.6.14 6.1.79 7.97.93 1.03.08 3.2.19 4.82.24l2.95.1.45-.46c.43-.43.45-.48.36-1.23a13.66 13.66 0 0 0-3.8-7.66 12.65 12.65 0 0 0-4.06-2.9c-2.08-1-3.23-1.22-6.58-1.33l-2.86-.09 2.77-3.39 2.77-3.38 1.55-.25c4.09-.65 10.33-1.32 15.56-1.67 1.32-.09 6.51-.19 11.54-.23l9.13-.07v-2.26l-9.28.07c-9.22.07-12.34.2-17.8.74-2.64.26-6.38.72-8.1 1-.7.1-1.3.16-1.34.12-.08-.08 2.53-7.12 3.17-8.51 1.25-2.74 3.65-5 6.55-6.13 2.01-.8 2.23-.8 15.04-.8H70V.56L58.11.6C51.58.6 45.85.66 45.38.73ZM28.24 17.16c0 .65.06.85.35 1.13.3.3.48.35 1.27.35.68 0 .92.05.92.2 0 .1-.33.6-.74 1.11l-.74.93h-3.74c-3.49.01-3.77 0-4.2-.27-1.26-.77-1.33-2.52-.13-3.3.61-.4 3.66-.87 5.99-.91l1.02-.02v.78Zm5.06 13.17c2.03.6 4.1 1.87 5.43 3.32 1.2 1.3 2.4 3.46 2.7 4.85l.1.46h-.62c-2.25 0-8.48-.51-11.12-.9l-1.2-.18.64-.2c.83-.25 2-1.4 2.23-2.2.39-1.32.11-2.37-.88-3.37-1.44-1.43-3.24-1.43-4.68.01-.45.44-.77.9-.83 1.19l-.1.46-.69-.67-.68-.68.65-1.26.65-1.26 3.68.06c3.25.06 3.8.1 4.72.37Zm16.46-.27a4.71 4.71 0 0 0-3.03 2.48c-.41.85-.56 3.07-.3 4.35a6.98 6.98 0 0 0 5.36 5.31c.46.1 4.14.15 9.48.15H70v-2.26h-2.26V36.7H70v-2.26h-2.26V32.2H70v-2.26l-9.91.01c-5.45.01-10.1.06-10.33.12Zm-30.4 2.54a8.4 8.4 0 0 1 4.33 3.38 7.91 7.91 0 0 1-6.1 11.96c-.98.09-2.82-.14-2.96-.36-.03-.06.34-.49.82-.96l.87-.85 1.04-.08A5.52 5.52 0 0 0 22 42.5c.5-1 .53-1.14.53-2.41 0-1.22-.04-1.44-.45-2.3a5.44 5.44 0 0 0-2.7-2.76c-1.01-.5-1.14-.52-2.42-.52s-1.42.02-2.42.52a5.52 5.52 0 0 0-3.18 4.65l-.08 1.04-.85.87c-.47.48-.9.85-.96.81a3.9 3.9 0 0 1-.28-1.08 7.96 7.96 0 0 1 6.07-8.93 8.86 8.86 0 0 1 4.1.2Zm32.58.72v1.12h-1.69c-1.84 0-1.85 0-1.54-.8.36-.95 1.17-1.44 2.42-1.45h.81v1.13Zm4.52 0v1.12H54.2V32.2h2.26v1.13Zm4.51 0v1.12h-2.26V32.2h2.26v1.13Zm4.52 0v1.12h-2.26V32.2h2.26v1.13Zm-36.47.34c.7.7.2 1.91-.78 1.91-.27 0-.56-.12-.78-.34-.22-.22-.35-.51-.35-.79 0-.27.13-.56.35-.78.22-.22.5-.34.78-.34s.57.12.78.34Zm5.07-.15a2.24 2.24 0 0 0-.64 3.63c1.58 1.59 4.18.17 3.76-2.06-.25-1.33-1.84-2.12-3.12-1.57ZM18.1 36.92c.34.12.89.48 1.21.8a3.18 3.18 0 0 1 .15 4.53c-.33.36-.51.48-.45.31.23-.67.23-1.61-.01-2.34a3.57 3.57 0 0 0-4.51-2.18c-.18.06-.06-.11.3-.46a3.1 3.1 0 0 1 3.31-.66Zm33.84 1.4v1.62l-.35-.13a4.23 4.23 0 0 1-1.67-1.08 4.23 4.23 0 0 1-1.08-1.67l-.13-.36H51.94v1.62Zm4.52.08v1.69H54.2V36.7h2.26v1.7Zm4.51 0v1.69h-2.26V36.7h2.26v1.7Zm4.52 0v1.69h-2.26V36.7h2.26v1.7Zm-48.95 2.1c.3.3.42.55.42.88 0 .43-.43.9-4.77 5.23-4.34 4.35-4.8 4.77-5.23 4.77-.64 0-1.29-.65-1.29-1.3 0-.42.43-.88 4.76-5.22 4.34-4.35 4.81-4.77 5.24-4.77.32 0 .58.12.87.41Zm18.94 3.19c-.17.12-.43.6-.6 1.12-.47 1.4-1.14 2.05-2.08 2.05-.22 0-.53.1-.68.2-.24.17-.68.17-2.96 0-3.63-.25-3.55-.26-3.96.15l-.34.35v3.3c0 3.83.1 4.3 1.07 5.27.42.42.82.66 1.35.81.5.14 3.6.38 9.47.72 8.04.48 8.74.5 9.06.3.19-.13.38-.4.43-.6.14-.53-2.24-8.8-2.62-9.1-.2-.17-.7-.27-1.63-.34-1.28-.1-1.35-.12-1.54-.5-.22-.42-.47-.56-1.01-.56-.89 0-1.6-.7-2.02-2-.33-1.02-.67-1.38-1.28-1.38-.2 0-.5.1-.66.2Zm.95 4.1c.15.18.14.26-.05.45-.22.22-.25.22-.47 0-.2-.2-.2-.27-.06-.45.1-.12.23-.22.3-.22.05 0 .18.1.28.22Zm11.32.57c-.35.35-.36.4-.27 1.55a9.65 9.65 0 0 0 2.98 6.34 9.82 9.82 0 0 0 4.1 2.58l1.12.38 7.16.04 7.16.05V57.03h-6.6c-6.15 0-6.7-.02-7.72-.29a7.85 7.85 0 0 1-5.52-5.03c-.6-1.64-1.8-1.46 9.75-1.46H70V48H48.12l-.37.37Zm-16.54 1.11c3.31.24 3.15.16 3.66 1.7.33.97.68 1.34 1.27 1.34.6 0 .95-.37 1.26-1.3.46-1.36.28-1.28 2.45-1.16 1.05.05 1.98.14 2.08.2.17.1 1.73 5.37 1.62 5.48-.05.05-6.83-.32-12.56-.69a72.85 72.85 0 0 0-2.51-.13c-.4 0-.64-.1-.95-.41l-.42-.42v-4.82h.6c.33 0 1.9.1 3.5.21Zm-5.47 11.44c1.14.53 2.6.86 6.38 1.41 1.4.21 2.62.4 2.72.43.13.04.17.66.17 2.46 0 2.37 0 2.42-.34 2.76l-.35.35h-9.9l-.35-.35-.34-.35v-7.95l.5.38c.26.2.94.6 1.5.86Z" fill="#fff"/><path fill-rule="evenodd" clip-rule="evenodd" d="M7.15 17.86c-.2.19-.35.46-.35.6 0 .43-.42 1.9-.72 2.53a6.34 6.34 0 0 1-3.58 3.15c-.97.33-1.34.67-1.34 1.27 0 .58.36.95 1.18 1.2 2.27.65 4 2.79 4.4 5.43.27 1.7 2.1 1.7 2.37 0 .4-2.64 2.14-4.78 4.4-5.44.82-.24 1.19-.6 1.19-1.19 0-.6-.37-.94-1.34-1.27A6.34 6.34 0 0 1 9.78 21c-.3-.62-.72-2.1-.72-2.53 0-.41-.64-.95-1.13-.95-.28 0-.57.13-.78.35Zm1.25 5.22c.22.35.82 1.02 1.32 1.48l.93.85-.93.85c-.5.47-1.1 1.13-1.32 1.48a2.9 2.9 0 0 1-.47.64 2.9 2.9 0 0 1-.47-.64 9.55 9.55 0 0 0-1.33-1.48l-.92-.85.92-.85c.51-.46 1.1-1.13 1.33-1.48.22-.35.43-.63.47-.63.04 0 .25.28.47.63Z" fill="#DB3138"/></svg>