<svg width="70" height="46" viewBox="0 0 70 46" fill="none" xmlns="http://www.w3.org/2000/svg"><path fill-rule="evenodd" clip-rule="evenodd" d="M15 .49c-.19.19-.34.44-.34.55 0 .17-.43.21-2.37.26-2.65.07-3.26.22-4.54 1.16C6.35 3.5 6.21 3.8 2.93 13.65.11 22.12-.06 22.68.01 23.45a4.11 4.11 0 0 0 2.35 3.43c.6.28.93.3 4.37.34 3.94.05 4.26 0 4.45-.64.04-.14.5-3.38 1-7.21.51-3.83 1.01-7.17 1.12-7.42.1-.24.43-.66.74-.93l.55-.48.1 2.6c.16 4.42.62 10.07 1.04 12.6.08.54.09.54.63.46 1.85-.27 1.7-.22 1.62-.62-.3-1.52-.84-7.73-1-11.85l-.1-2.3h3.52l.16.54a3.9 3.9 0 0 0 1.94 2.09c.87.43 1.2.79 1.2 1.35 0 .53-.5 1.02-1.34 1.32a4.12 4.12 0 0 0-2.09 1.98c-.29.65-4.3 18.67-4.44 19.86a6.3 6.3 0 0 0 4.87 6.6c1.05.21 23.02.21 24.06 0a6.28 6.28 0 0 0 4.86-6.6c-.17-1.63-4.18-19.27-4.55-20.04a3.58 3.58 0 0 0-2.03-1.82c-1.13-.4-1.58-1.24-1.07-1.98.11-.16.56-.46.98-.67a3.9 3.9 0 0 0 2.2-3.27c0-.35.08-.49.3-.56.16-.05 1.5-.82 2.97-1.7l2.68-1.61h18.2l.35-.35c.35-.34.35-.37.35-3.04s0-2.7-.35-3.04l-.34-.35H44.7l-.34.35c-.2.19-.35.44-.35.56 0 .2-1.2.22-11.3.22-10.09 0-11.29-.02-11.29-.22 0-.12-.15-.37-.34-.56-.35-.35-.37-.35-3.05-.35-2.67 0-2.7 0-3.04.35Zm4.17 5.3v3.39h-2.25V2.4h2.25V5.8Zm41.8-2.26v1.13H50.48l-2.1 1.27-2.1 1.26V2.4h14.67v1.13Zm6.77 0v1.13h-4.52V2.4h4.52v1.13Zm-53.08 2.3v2.3l-.82.34c-.97.4-2.1 1.48-2.54 2.42-.26.56-.37.67-.84.75a6.8 6.8 0 0 0-4.05 3.05c-.27.5-.78 2.24-1.57 5.38-.64 2.57-1.2 4.7-1.25 4.74-.05.05-.25.01-.44-.08-.43-.2-.92-.95-.92-1.43 0-.47 5.71-17.6 6.06-18.16a3.89 3.89 0 0 1 1.81-1.4c.35-.13 1.24-.2 2.54-.2h2.02v2.3Zm7.9-1.17v1.13h2.26V3.53h2.26V5.8h2.26V3.53h2.26V5.8h2.26V3.53h2.26V5.8h2.26V3.53h2.25V5.8h2.26V3.53h1.13v4.52H21.43V3.53h1.13v1.13Zm20.33 6.05c0 .57-.44 1.07-1.41 1.59-1.64.87-2.35 2.56-1.77 4.2.35.98.88 1.54 1.98 2.07 1.16.56 1.45.82 1.57 1.45l.1.45H22.1l.1-.45c.12-.63.4-.9 1.57-1.45 1.1-.53 1.63-1.09 1.97-2.07.59-1.64-.12-3.33-1.76-4.2-.97-.52-1.42-1.02-1.42-1.59v-.4H42.9v.4Zm-32.33 3.52c0 .13-.32 2.6-.7 5.47-.4 2.87-.7 5.24-.7 5.26 0 .01-.73.03-1.62.03h-1.6l1.09-4.35c.6-2.4 1.18-4.5 1.28-4.7.36-.68.78-1.14 1.4-1.55.72-.48.85-.5.85-.16Zm33.37 8.82 1.8 8.01c1.85 8.34 1.87 8.53 1.25 9.76a3.78 3.78 0 0 1-1.76 1.8l-.7.37H20.94l-.58-.31c-.91-.49-1.45-1-1.84-1.77-.67-1.33-.66-1.42 1.21-9.85.95-4.23 1.75-7.84 1.8-8.01l.07-.32h22.25l.08.32Z" fill="#fff"/><path fill-rule="evenodd" clip-rule="evenodd" d="M36.04 26.04c.4-.39.93-.78 1.2-.87a3.22 3.22 0 0 1 3.47.87 3.12 3.12 0 0 1 1.05 2.34c0 2.23-2.49 4-4.47 3.17a5.55 5.55 0 0 0-.55-.2c-.03 0 .05.26.17.6.3.85.4 2.43.2 3.38a7.16 7.16 0 0 1-1.98 3.55 6.63 6.63 0 0 1-9.38-.09 6.67 6.67 0 0 1 .59-10.06 6.8 6.8 0 0 1 8.15-.13l.5.38v-.53c0-.96.3-1.66 1.05-2.4Zm-1.48 6.08a4.95 4.95 0 0 0-2.19-2.18 5 5 0 0 0-3.31-.2 4.53 4.53 0 0 0-.5 8.38c.59.29.91.35 1.9.34 1.03 0 1.32-.06 1.93-.37a4.04 4.04 0 0 0 2.04-1.97c.44-.82.48-1 .48-2.1 0-.99-.06-1.32-.35-1.9Zm4.6-4.52c.22.21.34.5.34.78 0 .27-.12.56-.34.78-.22.22-.51.35-.79.35-.27 0-.56-.13-.78-.35-.22-.22-.34-.5-.34-.78s.12-.57.34-.78c.22-.22.51-.35.78-.35.28 0 .57.13.79.35Z" fill="#DB3138"/></svg>