<svg width="70" height="57" viewBox="0 0 70 57" fill="none" xmlns="http://www.w3.org/2000/svg"><path fill-rule="evenodd" clip-rule="evenodd" d="M51.8 2.72c-3.25 2.04-4.21 2.58-4.97 2.78l-.95.25-5.09-.62c-5.71-.7-6.54-.7-8.93-.1a15 15 0 0 0-2.47.9c-.6.3-3.94 2.38-7.42 4.63-6.5 4.2-6.83 4.47-7.08 5.5-.06.22-.33.55-.65.76-.3.21-.74.68-.98 1.04-.76 1.16-.84 1.68-.84 5.72v3.66H0V29.51h18.15c9.98 0 18.12.05 18.09.1a21.47 21.47 0 0 0-2.04 5.57c-.35 1.67-.35 5.26.01 6.95A18.2 18.2 0 0 0 48.96 56.5 18.08 18.08 0 0 0 69.8 41.13c.57-3.87-.12-7.5-2.17-11.51-.03-.06.5-.11 1.16-.11H70V27.24h-3.94l-1.2-1.25a17.73 17.73 0 0 0-13.7-5.5c-.93.05-1.9.13-2.15.18-.44.07-.46.05-.46-.34 0-.37.07-.44.6-.6a12.57 12.57 0 0 0 3.77-2.17c.59-.5 2.94-2.07 5.23-3.5a170.6 170.6 0 0 0 4.33-2.76c.14-.13.05-.37-.4-1.1l-.57-.94-1.65 1.03-4.4 2.75a42.7 42.7 0 0 0-3.51 2.39 11 11 0 0 1-3.8 2.26c-1.12.37-1.39.4-3.2.39a16.55 16.55 0 0 1-4.16-.48c-1.86-.39-2.62-.47-5.01-.56a22.21 22.21 0 0 1-3.2-.26c-.71-.3-1.81-1.48-1.81-1.94 0-.05 1.71-.08 3.8-.08h3.82V12.49h-9.33l-4.95 2.76c-5.21 2.9-5.85 3.17-6.6 2.75-.5-.28-.7-.89-.43-1.35.2-.35 11.66-7.88 13.12-8.62 1.36-.7 3.46-1.2 4.93-1.22.43 0 3 .27 5.69.6 6.78.83 6.25.95 12.26-2.8 1.97-1.22 3.66-2.3 3.76-2.39.13-.12.05-.35-.37-1.05-.3-.49-.57-.9-.6-.93a82.44 82.44 0 0 0-4.08 2.48Zm-38.75-.27c-.37.21-.44.32-.78 1.35-.36 1.07-.93 1.7-1.66 1.82-.88.14-1.26.35-1.44.78-.34.83.15 1.44 1.31 1.62.83.13 1.4.73 1.79 1.91.36 1.07.68 1.43 1.28 1.43s.95-.37 1.27-1.34c.16-.5.43-1.09.6-1.3A2.28 2.28 0 0 1 17 7.95c.5 0 1.05-.59 1.05-1.13a1.2 1.2 0 0 0-1.13-1.14c-.98 0-1.64-.64-2.11-2.06-.4-1.22-1-1.61-1.77-1.17Zm.78 4.15c.13.16.12.27-.04.5-.2.28-.2.28-.45 0-.2-.23-.22-.32-.08-.5.23-.26.35-.26.57 0Zm-8.71 7.2c-.18.08-.41.42-.55.8-.66 1.86-.97 2.2-2.13 2.42-.68.13-1.31.65-1.31 1.09 0 .44.43 1.04.81 1.12 1.56.32 1.94.65 2.42 2.05.36 1.03.7 1.42 1.27 1.42.61 0 .96-.36 1.28-1.34.17-.5.44-1.08.6-1.3a2.28 2.28 0 0 1 1.6-.76c.5 0 1.05-.6 1.05-1.14a1.2 1.2 0 0 0-1.13-1.13c-.98 0-1.65-.65-2.12-2.07-.4-1.23-.94-1.58-1.79-1.16Zm23.5 1.93c.03.1-.12.16-.42.16-.44 0-.45-.02-.2-.21.31-.23.53-.22.62.05Zm-22.7 2.21c.14.17.13.27-.03.5-.2.29-.2.29-.45.01-.21-.23-.22-.32-.08-.5.22-.27.35-.27.56 0Zm25.5.75 1.06.52 3 .1c2.54.1 3.28.17 5.02.55 1.38.3 2.66.47 3.92.53l1.87.09v.46c0 .38-.06.47-.39.55-.8.2-3.25 1.5-4.42 2.34a22.4 22.4 0 0 0-2.45 2.14l-1.24 1.27H14.68v-3.62c0-3.07.03-3.7.23-4.08.31-.62.31-.62.55-.27.38.54 1.41 1.04 2.3 1.12 1.14.1 2.37-.3 4.26-1.37l1.48-.85h6.87l1.06.52ZM35 21.57v1.13h2.26V20.43H35v1.14Zm19.4 1.34c6.6 1.07 11.66 6.02 13.08 12.77.24 1.1.24 4.71 0 5.81a16.12 16.12 0 0 1-12.65 12.72 24 24 0 0 1-5.79 0A15.91 15.91 0 0 1 38 45.99a15.72 15.72 0 0 1-.1-14.64 15.79 15.79 0 0 1 16.52-8.44Zm-34.08 2.06v1.14h2.26V23.84h-2.26v1.13Z" fill="#fff"/><path fill-rule="evenodd" clip-rule="evenodd" d="M41.07 31a4.8 4.8 0 0 1 3.03-2.5c.24-.06 2.36-.1 4.73-.08 4.16.03 4.33.04 4.95.35 1 .5 1.6 1.07 2.12 2.04l.48.9.05 3.13.05 3.13.5-.47a3.82 3.82 0 0 1 2.93-1.1 3.9 3.9 0 0 1 3.01 1.12c1.24 1.13 1.61 2.63 1.3 5.33-.4 3.44-.95 4.62-2.6 5.5l-.72.38H43.96l-.89-.49a4.45 4.45 0 0 1-2.04-2.13c-.31-.64-.31-.67-.31-7.52V31.7l.35-.71Zm20.81 12.34c.42-2.8.19-3.9-.96-4.46a2.1 2.1 0 0 0-1.78-.13c-.55.22-.85.55-1.3 1.47-.75 1.48-1.08 1.74-3.67 2.77-.8.32-1.6.72-1.77.88-.7.66-.5 1.99.38 2.45.37.19.97.22 4.1.18l3.65-.04.43-.42c.52-.5.65-.88.92-2.7ZM53.15 31c.22.16.52.47.68.68.28.37.3.6.33 4.62l.05 4.22-1.17.47c-1.57.63-2.13 1-2.64 1.74-.7 1.01-.9 2.5-.5 3.55.1.24-.05.25-2.73.21-3.1-.05-3.2-.07-3.9-1.02-.29-.38-.3-.59-.34-6.51-.02-3.37 0-6.33.04-6.58.1-.57.7-1.3 1.27-1.55.33-.15 1.32-.18 4.48-.16 3.84.03 4.06.05 4.43.33Z" fill="#DB3138"/></svg>